<svg xmlns="http://www.w3.org/2000/svg" viewBox="0 0 400 500">
  <defs>
    <linearGradient id="p2b" x1="0" y1="0" x2="1" y2="1"><stop offset="0" stop-color="#f1c8a8"/><stop offset="1" stop-color="#e7a9a0"/></linearGradient>
    <linearGradient id="p2h" x1="0" y1="0" x2="1" y2="1"><stop offset="0" stop-color="#2c2138"/><stop offset="1" stop-color="#4a3a5c"/></linearGradient>
  </defs>
  <rect width="400" height="500" fill="url(#p2b)"/>
  <ellipse cx="195" cy="230" rx="108" ry="118" fill="#ffe1d2"/>
  <path d="M85 230Q72 90 195 84Q315 92 306 240Q272 168 195 178Q128 184 85 230Z" fill="url(#p2h)"/>
  <circle cx="160" cy="235" r="9" fill="#2b2b36"/>
  <circle cx="232" cy="235" r="9" fill="#2b2b36"/>
  <ellipse cx="196" cy="270" rx="18" ry="12" fill="#5a3325"/>
  <path d="M60 500V380Q196 320 330 380V500Z" fill="#3a3230"/>
  <!-- steam -->
  <path d="M150 340Q140 310 155 285" stroke="#fff" stroke-width="6" fill="none" stroke-linecap="round" opacity=".55"/>
  <path d="M195 340Q185 305 200 280" stroke="#fff" stroke-width="6" fill="none" stroke-linecap="round" opacity=".5"/>
  <path d="M240 340Q230 312 245 288" stroke="#fff" stroke-width="6" fill="none" stroke-linecap="round" opacity=".45"/>
  <!-- bowl -->
  <path d="M90 420Q195 470 300 420L285 460Q195 500 105 460Z" fill="#e8e2da"/>
  <path d="M90 420Q195 460 300 420" fill="#c94f4f" opacity=".8"/>
</svg>
